<svg width="15" height="15" viewBox="0 0 15 15" fill="none" xmlns="http://www.w3.org/2000/svg">
<path d="M1.20987 10.5185C1.364 11.9592 2.5227 13.1179 3.96266 13.2784C5.03221 13.3976 6.13037 13.5 7.25 13.5C8.36963 13.5 9.46779 13.3976 10.5373 13.2784C11.9773 13.1179 13.136 11.9592 13.2901 10.5185C13.4039 9.45502 13.5 8.36315 13.5 7.25C13.5 6.13684 13.4039 5.04498 13.2901 3.98147C13.136 2.54082 11.9773 1.38211 10.5373 1.22161C9.46779 1.10239 8.36963 1 7.25 1C6.13037 1 5.03221 1.10239 3.96266 1.22161C2.5227 1.38211 1.364 2.54082 1.20987 3.98147C1.09608 5.04498 1 6.13684 1 7.25C1 8.36315 1.09608 9.45502 1.20987 10.5185Z" stroke="black" stroke-width="1.5" stroke-linejoin="round"/>
<path d="M13.4579 8.25H10.2384C9.68796 8.25 9.2555 8.71906 9.01293 9.21482C8.7494 9.75341 8.22167 10.25 7.24852 10.25C6.27537 10.25 5.74765 9.75341 5.48412 9.21482C5.24155 8.71906 4.80908 8.25 4.25867 8.25H1.03918C1.07098 9.08937 1.13887 9.92123 1.22249 10.7276C1.36218 12.0746 2.42102 13.1467 3.76305 13.2913C4.89188 13.4129 6.06765 13.5 7.24852 13.5C8.4294 13.5 9.60517 13.4129 10.734 13.2913C12.076 13.1467 13.1349 12.0746 13.2746 10.7276C13.3582 9.92123 13.4261 9.08937 13.4579 8.25Z" fill="white" stroke="black" stroke-width="1.5" stroke-linejoin="round"/>
</svg>
