<svg width="40" height="40" viewBox="0 0 40 40" fill="none" xmlns="http://www.w3.org/2000/svg">
<path d="M7 4C7 1.79086 8.79086 0 11 0H27C27.3201 0 27.6272 0.127177 27.8536 0.353553L38.6464 11.1464C38.8728 11.3728 39 11.6799 39 12V36C39 38.2091 37.2091 40 35 40H11C8.79086 40 7 38.2091 7 36V4Z" fill="white"/>
<path d="M27 0.5V8C27 10.2091 28.7909 12 31 12H38.5" stroke="#D0D5DD" stroke-width="1.5"/>
<rect x="2" y="17.5" width="26" height="17" rx="2" fill="#099250"/>
<path d="M8.87879 24.5C8.31879 24.5 7.85879 24.73 7.51879 25.17C7.17879 25.61 7.00879 26.19 7.00879 26.91C7.00879 27.63 7.17879 28.22 7.51879 28.66C7.85879 29.1 8.31879 29.32 8.87879 29.32C9.25879 29.32 9.58879 29.21 9.86879 28.98C10.1388 28.76 10.3288 28.44 10.4288 28.03L11.8088 28.49C11.5888 29.17 11.2188 29.69 10.7188 30.06C10.2088 30.43 9.59879 30.61 8.87879 30.61C8.38879 30.61 7.92879 30.52 7.50879 30.33C7.08879 30.14 6.71879 29.87 6.41879 29.51C6.12879 29.17 5.90879 28.78 5.75879 28.34C5.59879 27.9 5.52879 27.42 5.52879 26.91C5.52879 26.41 5.59879 25.93 5.75879 25.49C5.90879 25.05 6.12879 24.65 6.41879 24.31C6.71879 23.96 7.08879 23.69 7.50879 23.5C7.92879 23.31 8.38879 23.21 8.87879 23.21C9.59879 23.21 10.2088 23.4 10.7188 23.77C11.2188 24.14 11.5888 24.66 11.8088 25.33L10.4288 25.79C10.3288 25.39 10.1388 25.07 9.86879 24.84C9.58879 24.62 9.25879 24.5 8.87879 24.5ZM14.9473 30.61C14.3273 30.61 13.7273 30.48 13.1673 30.22C12.5973 29.96 12.1773 29.62 11.8973 29.19L12.9073 28.21C13.1673 28.59 13.4773 28.88 13.8473 29.08C14.2073 29.28 14.5973 29.38 14.9973 29.38C15.3873 29.38 15.6973 29.3 15.9373 29.13C16.1773 28.97 16.2973 28.74 16.2973 28.44C16.2973 28.26 16.2373 28.12 16.1373 28C16.0373 27.89 15.8573 27.79 15.6173 27.71C15.5473 27.69 15.4273 27.66 15.2473 27.62C15.0673 27.58 14.8273 27.52 14.5373 27.45C14.1273 27.36 13.8073 27.27 13.5873 27.18C13.3573 27.09 13.1573 26.99 12.9973 26.87C12.7573 26.71 12.5873 26.51 12.4773 26.27C12.3573 26.03 12.3073 25.76 12.3073 25.44C12.3073 25.1 12.3773 24.79 12.5173 24.5C12.6573 24.22 12.8673 23.97 13.1373 23.77C13.3773 23.59 13.6473 23.46 13.9673 23.36C14.2873 23.26 14.6173 23.21 14.9773 23.21C15.5473 23.21 16.0773 23.33 16.5573 23.55C17.0373 23.78 17.4073 24.09 17.6873 24.48L16.7173 25.43C16.4773 25.1 16.2073 24.85 15.9173 24.69C15.6173 24.53 15.2973 24.44 14.9373 24.44C14.5773 24.44 14.2973 24.52 14.0773 24.68C13.8573 24.84 13.7573 25.04 13.7573 25.3C13.7573 25.46 13.7973 25.59 13.8873 25.69C13.9673 25.79 14.1073 25.88 14.3073 25.95C14.3873 25.98 14.4773 26.01 14.5973 26.04C14.7173 26.07 14.9173 26.12 15.2173 26.18C15.7273 26.3 16.0973 26.4 16.3373 26.48C16.5673 26.56 16.7673 26.65 16.9373 26.75C17.2173 26.93 17.4173 27.14 17.5573 27.39C17.6873 27.65 17.7573 27.95 17.7573 28.29C17.7573 28.65 17.6773 28.97 17.5273 29.27C17.3773 29.57 17.1573 29.83 16.8773 30.03C16.6173 30.22 16.3273 30.36 15.9973 30.46C15.6673 30.56 15.3173 30.61 14.9473 30.61ZM24.6588 23.32L22.0288 30.5H20.4888L17.8388 23.32H19.4188L21.2788 28.63L23.1488 23.32H24.6588Z" fill="white"/>
</svg>
