<svg width="40" height="40" viewBox="0 0 40 40" fill="none" xmlns="http://www.w3.org/2000/svg">
<path d="M7 4C7 1.79086 8.79086 0 11 0H27C27.3201 0 27.6272 0.127177 27.8536 0.353553L38.6464 11.1464C38.8728 11.3728 39 11.6799 39 12V36C39 38.2091 37.2091 40 35 40H11C8.79086 40 7 38.2091 7 36V4Z" fill="white"/>
<path d="M27 0.5V8C27 10.2091 28.7909 12 31 12H38.5" stroke="#D0D5DD" stroke-width="1.5"/>
<rect x="1.5" y="17.5" width="22" height="17" rx="2" fill="#7F56D9"/>
<path d="M11.3101 30.5H9.99008V29.81C9.83008 30.06 9.58008 30.26 9.25008 30.4C8.91008 30.54 8.54008 30.61 8.12008 30.61C7.64008 30.61 7.19008 30.52 6.77008 30.33C6.35008 30.14 6.00008 29.86 5.70008 29.5C5.42008 29.18 5.21008 28.8 5.07008 28.36C4.92008 27.92 4.85008 27.45 4.85008 26.95C4.85008 26.44 4.92008 25.96 5.08008 25.51C5.23008 25.07 5.45008 24.67 5.74008 24.33C6.04008 23.97 6.41008 23.7 6.84008 23.5C7.26008 23.31 7.72008 23.21 8.22008 23.21C8.94008 23.21 9.56008 23.39 10.0701 23.75C10.5801 24.11 10.9601 24.63 11.2001 25.31L9.79008 25.78C9.69008 25.38 9.51008 25.06 9.24008 24.84C8.97008 24.62 8.64008 24.5 8.24008 24.5C7.66008 24.5 7.20008 24.73 6.85008 25.17C6.50008 25.61 6.33008 26.2 6.33008 26.92C6.33008 27.65 6.50008 28.24 6.86008 28.69C7.22008 29.14 7.68008 29.36 8.26008 29.36C8.71008 29.36 9.08008 29.22 9.38008 28.94C9.67008 28.66 9.83008 28.29 9.87008 27.83H8.13008V26.58H11.3101V30.5ZM12.5148 23.32H13.9848V30.5H12.5148V23.32ZM16.6894 27.65V30.5H15.2394V23.32H20.1394V24.59H16.6894V26.38H19.5694V27.65H16.6894Z" fill="white"/>
</svg>
