<svg width="40" height="40" viewBox="0 0 40 40" fill="none" xmlns="http://www.w3.org/2000/svg">
<path d="M7 4C7 1.79086 8.79086 0 11 0H27C27.3201 0 27.6272 0.127177 27.8536 0.353553L38.6464 11.1464C38.8728 11.3728 39 11.6799 39 12V36C39 38.2091 37.2091 40 35 40H11C8.79086 40 7 38.2091 7 36V4Z" fill="white"/>
<path d="M27 0.5V8C27 10.2091 28.7909 12 31 12H38.5" stroke="#D0D5DD" stroke-width="1.5"/>
<rect x="2" y="17.5" width="24" height="17" rx="2" fill="#7F56D9"/>
<path d="M6.24887 30.56C6.06887 30.56 5.90887 30.56 5.75887 30.55C5.60887 30.54 5.45887 30.52 5.30887 30.49V29.2C5.48887 29.23 5.62887 29.25 5.72887 29.26C5.82887 29.27 5.93887 29.27 6.06887 29.27C6.45887 29.27 6.73887 29.19 6.90887 29.03C7.06887 28.87 7.15887 28.61 7.15887 28.25V23.32H8.62887V28.42C8.62887 29.12 8.41887 29.66 8.01887 30.02C7.61887 30.38 7.02887 30.56 6.24887 30.56ZM12.7311 27.86H11.2611V30.5H9.79113V23.32H12.7311C13.5811 23.32 14.2411 23.52 14.7111 23.91C15.1711 24.31 15.4111 24.87 15.4111 25.59C15.4111 26.31 15.1711 26.87 14.7011 27.27C14.2311 27.67 13.5711 27.86 12.7311 27.86ZM11.2611 24.57V26.61H12.6511C13.0711 26.61 13.3911 26.53 13.6111 26.35C13.8311 26.17 13.9511 25.92 13.9511 25.59C13.9511 25.26 13.8311 25.01 13.6111 24.83C13.3911 24.66 13.0711 24.57 12.6511 24.57H11.2611ZM22.3364 30.5H21.0164V29.81C20.8564 30.06 20.6064 30.26 20.2764 30.4C19.9364 30.54 19.5664 30.61 19.1464 30.61C18.6664 30.61 18.2164 30.52 17.7964 30.33C17.3764 30.14 17.0264 29.86 16.7264 29.5C16.4464 29.18 16.2364 28.8 16.0964 28.36C15.9464 27.92 15.8764 27.45 15.8764 26.95C15.8764 26.44 15.9464 25.96 16.1064 25.51C16.2564 25.07 16.4764 24.67 16.7664 24.33C17.0664 23.97 17.4364 23.7 17.8664 23.5C18.2864 23.31 18.7464 23.21 19.2464 23.21C19.9664 23.21 20.5864 23.39 21.0964 23.75C21.6064 24.11 21.9864 24.63 22.2264 25.31L20.8164 25.78C20.7164 25.38 20.5364 25.06 20.2664 24.84C19.9964 24.62 19.6664 24.5 19.2664 24.5C18.6864 24.5 18.2264 24.73 17.8764 25.17C17.5264 25.61 17.3564 26.2 17.3564 26.92C17.3564 27.65 17.5264 28.24 17.8864 28.69C18.2464 29.14 18.7064 29.36 19.2864 29.36C19.7364 29.36 20.1064 29.22 20.4064 28.94C20.6964 28.66 20.8564 28.29 20.8964 27.83H19.1564V26.58H22.3364V30.5Z" fill="white"/>
</svg>
