<svg width="40" height="40" viewBox="0 0 40 40" fill="none" xmlns="http://www.w3.org/2000/svg">
<path d="M7 4C7 1.79086 8.79086 0 11 0H27C27.3201 0 27.6272 0.127177 27.8536 0.353553L38.6464 11.1464C38.8728 11.3728 39 11.6799 39 12V36C39 38.2091 37.2091 40 35 40H11C8.79086 40 7 38.2091 7 36V4Z" fill="white"/>
<path d="M27 0.5V8C27 10.2091 28.7909 12 31 12H38.5" stroke="#D0D5DD" stroke-width="1.5"/>
<rect x="2.5" y="17.5" width="31" height="17" rx="2" fill="#444CE7"/>
<path d="M6.81625 30.56C6.63625 30.56 6.47625 30.56 6.32625 30.55C6.17625 30.54 6.02625 30.52 5.87625 30.49V29.2C6.05625 29.23 6.19625 29.25 6.29625 29.26C6.39625 29.27 6.50625 29.27 6.63625 29.27C7.02625 29.27 7.30625 29.19 7.47625 29.03C7.63625 28.87 7.72625 28.61 7.72625 28.25V23.32H9.19625V28.42C9.19625 29.12 8.98625 29.66 8.58625 30.02C8.18625 30.38 7.59625 30.56 6.81625 30.56ZM12.6885 30.61C12.0685 30.61 11.4685 30.48 10.9085 30.22C10.3385 29.96 9.91852 29.62 9.63852 29.19L10.6485 28.21C10.9085 28.59 11.2185 28.88 11.5885 29.08C11.9485 29.28 12.3385 29.38 12.7385 29.38C13.1285 29.38 13.4385 29.3 13.6785 29.13C13.9185 28.97 14.0385 28.74 14.0385 28.44C14.0385 28.26 13.9785 28.12 13.8785 28C13.7785 27.89 13.5985 27.79 13.3585 27.71C13.2885 27.69 13.1685 27.66 12.9885 27.62C12.8085 27.58 12.5685 27.52 12.2785 27.45C11.8685 27.36 11.5485 27.27 11.3285 27.18C11.0985 27.09 10.8985 26.99 10.7385 26.87C10.4985 26.71 10.3285 26.51 10.2185 26.27C10.0985 26.03 10.0485 25.76 10.0485 25.44C10.0485 25.1 10.1185 24.79 10.2585 24.5C10.3985 24.22 10.6085 23.97 10.8785 23.77C11.1185 23.59 11.3885 23.46 11.7085 23.36C12.0285 23.26 12.3585 23.21 12.7185 23.21C13.2885 23.21 13.8185 23.33 14.2985 23.55C14.7785 23.78 15.1485 24.09 15.4285 24.48L14.4585 25.43C14.2185 25.1 13.9485 24.85 13.6585 24.69C13.3585 24.53 13.0385 24.44 12.6785 24.44C12.3185 24.44 12.0385 24.52 11.8185 24.68C11.5985 24.84 11.4985 25.04 11.4985 25.3C11.4985 25.46 11.5385 25.59 11.6285 25.69C11.7085 25.79 11.8485 25.88 12.0485 25.95C12.1285 25.98 12.2185 26.01 12.3385 26.04C12.4585 26.07 12.6585 26.12 12.9585 26.18C13.4685 26.3 13.8385 26.4 14.0785 26.48C14.3085 26.56 14.5085 26.65 14.6785 26.75C14.9585 26.93 15.1585 27.14 15.2985 27.39C15.4285 27.65 15.4985 27.95 15.4985 28.29C15.4985 28.65 15.4185 28.97 15.2685 29.27C15.1185 29.57 14.8985 29.83 14.6185 30.03C14.3585 30.22 14.0685 30.36 13.7385 30.46C13.4085 30.56 13.0585 30.61 12.6885 30.61ZM16.8753 29.52C16.5753 29.19 16.3553 28.8 16.1953 28.35C16.0353 27.91 15.9653 27.43 15.9653 26.91C15.9653 26.4 16.0353 25.92 16.1953 25.47C16.3553 25.03 16.5753 24.64 16.8753 24.3C17.1753 23.95 17.5453 23.68 17.9753 23.49C18.4053 23.31 18.8653 23.21 19.3653 23.21C19.8553 23.21 20.3153 23.31 20.7453 23.49C21.1653 23.68 21.5353 23.95 21.8553 24.31C22.1453 24.65 22.3653 25.04 22.5253 25.48C22.6753 25.92 22.7553 26.4 22.7553 26.91C22.7553 27.43 22.6753 27.91 22.5253 28.35C22.3653 28.79 22.1453 29.18 21.8553 29.51C21.5353 29.87 21.1653 30.15 20.7453 30.33C20.3153 30.52 19.8553 30.61 19.3653 30.61C18.8653 30.61 18.4053 30.52 17.9753 30.33C17.5453 30.15 17.1753 29.88 16.8753 29.52ZM19.3653 29.32C19.9253 29.32 20.3853 29.1 20.7453 28.66C21.0953 28.22 21.2753 27.63 21.2753 26.91C21.2753 26.19 21.0953 25.61 20.7453 25.17C20.3853 24.73 19.9253 24.5 19.3653 24.5C18.7853 24.5 18.3253 24.72 17.9753 25.16C17.6153 25.6 17.4453 26.19 17.4453 26.91C17.4453 27.64 17.6153 28.22 17.9753 28.66C18.3253 29.1 18.7853 29.32 19.3653 29.32ZM28.2993 23.32H29.7093V30.5H28.4293L25.0693 25.55V30.5H23.6593V23.32H25.1493L28.2993 28.03V23.32Z" fill="white"/>
</svg>
