<svg width="40" height="40" viewBox="0 0 40 40" fill="none" xmlns="http://www.w3.org/2000/svg">
<path d="M7 4C7 1.79086 8.79086 0 11 0H27C27.3201 0 27.6272 0.127177 27.8536 0.353553L38.6464 11.1464C38.8728 11.3728 39 11.6799 39 12V36C39 38.2091 37.2091 40 35 40H11C8.79086 40 7 38.2091 7 36V4Z" fill="white"/>
<path d="M27 0.5V8C27 10.2091 28.7909 12 31 12H38.5" stroke="#D0D5DD" stroke-width="1.5"/>
<rect x="2" y="17.5" width="27" height="17" rx="2" fill="#DD2590"/>
<path d="M11.6896 25.24L9.95961 30.5H8.83961L7.10961 25.24V30.5H5.72961V23.32H7.76961L9.42961 28.43L11.0796 23.32H13.0896V30.5H11.6896V25.24ZM17.2829 27.86H15.8129V30.5H14.3429V23.32H17.2829C18.1329 23.32 18.7929 23.52 19.2629 23.91C19.7229 24.31 19.9629 24.87 19.9629 25.59C19.9629 26.31 19.7229 26.87 19.2529 27.27C18.7829 27.67 18.1229 27.86 17.2829 27.86ZM15.8129 24.57V26.61H17.2029C17.6229 26.61 17.9429 26.53 18.1629 26.35C18.3829 26.17 18.5029 25.92 18.5029 25.59C18.5029 25.26 18.3829 25.01 18.1629 24.83C17.9429 24.66 17.6229 24.57 17.2029 24.57H15.8129ZM24.8196 30.07C24.5896 30.25 24.3196 30.39 24.0196 30.48C23.7196 30.57 23.3896 30.61 23.0496 30.61C22.2796 30.61 21.6496 30.42 21.1496 30.02C20.6496 29.63 20.3496 29.09 20.2496 28.4L21.6796 28.15C21.7296 28.53 21.8796 28.84 22.1196 29.06C22.3596 29.28 22.6696 29.39 23.0296 29.39C23.3896 29.39 23.6796 29.3 23.8996 29.12C24.1096 28.94 24.2196 28.68 24.2196 28.36C24.2196 28.06 24.1096 27.82 23.8896 27.66C23.6696 27.5 23.3496 27.42 22.9396 27.42H22.2496V26.21H22.9196C23.2796 26.21 23.5596 26.14 23.7596 25.99C23.9496 25.84 24.0496 25.62 24.0496 25.34C24.0496 25.06 23.9596 24.83 23.7796 24.67C23.5996 24.51 23.3496 24.43 23.0396 24.43C22.7096 24.43 22.4296 24.54 22.2096 24.75C21.9796 24.97 21.8396 25.26 21.7796 25.62L20.4396 25.42C20.5396 24.76 20.8296 24.23 21.3096 23.82C21.7896 23.42 22.3796 23.21 23.0896 23.21C23.7996 23.21 24.3696 23.4 24.8096 23.77C25.2396 24.15 25.4596 24.64 25.4596 25.25C25.4596 25.6 25.3596 25.92 25.1796 26.2C24.9996 26.48 24.7596 26.68 24.4596 26.79C24.8396 26.93 25.1296 27.14 25.3396 27.42C25.5396 27.71 25.6496 28.06 25.6496 28.46C25.6496 28.78 25.5696 29.08 25.4296 29.36C25.2896 29.64 25.0796 29.88 24.8196 30.07Z" fill="white"/>
</svg>
