<svg width="40" height="40" viewBox="0 0 40 40" fill="none" xmlns="http://www.w3.org/2000/svg">
<path d="M7 4C7 1.79086 8.79086 0 11 0H27C27.3201 0 27.6272 0.127177 27.8536 0.353553L38.6464 11.1464C38.8728 11.3728 39 11.6799 39 12V36C39 38.2091 37.2091 40 35 40H11C8.79086 40 7 38.2091 7 36V4Z" fill="white"/>
<path d="M27 0.5V8C27 10.2091 28.7909 12 31 12H38.5" stroke="#D0D5DD" stroke-width="1.5"/>
<rect x="1.5" y="17.5" width="28" height="17" rx="2" fill="#155EEF"/>
<path d="M11.5138 25.24L9.78383 30.5H8.66383L6.93383 25.24V30.5H5.55383V23.32H7.59383L9.25383 28.43L10.9038 23.32H12.9138V30.5H11.5138V25.24ZM17.1071 27.86H15.6371V30.5H14.1671V23.32H17.1071C17.9571 23.32 18.6171 23.52 19.0871 23.91C19.5471 24.31 19.7871 24.87 19.7871 25.59C19.7871 26.31 19.5471 26.87 19.0771 27.27C18.6071 27.67 17.9471 27.86 17.1071 27.86ZM15.6371 24.57V26.61H17.0271C17.4471 26.61 17.7671 26.53 17.9871 26.35C18.2071 26.17 18.3271 25.92 18.3271 25.59C18.3271 25.26 18.2071 25.01 17.9871 24.83C17.7671 24.66 17.4471 24.57 17.0271 24.57H15.6371ZM24.7238 28.78V30.5H23.3638V28.78H20.0238V27.66L22.8838 23.32H24.7438V27.58H25.9738V28.78H24.7238ZM23.3438 24.68L21.4338 27.58H23.3438V24.68Z" fill="white"/>
</svg>
