<svg width="40" height="40" viewBox="0 0 40 40" fill="none" xmlns="http://www.w3.org/2000/svg">
<path d="M7 4C7 1.79086 8.79086 0 11 0H27C27.3201 0 27.6272 0.127177 27.8536 0.353553L38.6464 11.1464C38.8728 11.3728 39 11.6799 39 12V36C39 38.2091 37.2091 40 35 40H11C8.79086 40 7 38.2091 7 36V4Z" fill="white"/>
<path d="M27 0.5V8C27 10.2091 28.7909 12 31 12H38.5" stroke="#D0D5DD" stroke-width="1.5"/>
<rect x="1" y="17.5" width="26" height="17" rx="2" fill="#D92D20"/>
<path d="M7.96063 27.86H6.49063V30.5H5.02063V23.32H7.96063C8.81063 23.32 9.47063 23.52 9.94063 23.91C10.4006 24.31 10.6406 24.87 10.6406 25.59C10.6406 26.31 10.4006 26.87 9.93063 27.27C9.46063 27.67 8.80063 27.86 7.96063 27.86ZM6.49063 24.57V26.61H7.88063C8.30063 26.61 8.62063 26.53 8.84063 26.35C9.06063 26.17 9.18063 25.92 9.18063 25.59C9.18063 25.26 9.06063 25.01 8.84063 24.83C8.62063 24.66 8.30063 24.57 7.88063 24.57H6.49063ZM13.8773 30.5H11.4073V23.32H13.8773C14.4173 23.32 14.9173 23.41 15.3673 23.57C15.8173 23.73 16.2073 23.97 16.5273 24.28C16.8473 24.6 17.0973 24.98 17.2673 25.42C17.4273 25.87 17.5173 26.37 17.5173 26.91C17.5173 27.46 17.4273 27.96 17.2673 28.4C17.0973 28.85 16.8473 29.23 16.5273 29.54C16.2073 29.86 15.8173 30.1 15.3673 30.26C14.9173 30.42 14.4173 30.5 13.8773 30.5ZM12.8473 24.58V29.24H13.8773C14.5573 29.24 15.0873 29.04 15.4773 28.62C15.8673 28.2 16.0673 27.63 16.0673 26.91C16.0673 26.19 15.8673 25.62 15.4773 25.2C15.0873 24.79 14.5473 24.58 13.8673 24.58H12.8473ZM19.8788 27.65V30.5H18.4288V23.32H23.3288V24.59H19.8788V26.38H22.7588V27.65H19.8788Z" fill="white"/>
</svg>
