<svg width="40" height="40" viewBox="0 0 40 40" fill="none" xmlns="http://www.w3.org/2000/svg">
<path d="M7 4C7 1.79086 8.79086 0 11 0H27C27.3201 0 27.6272 0.127177 27.8536 0.353553L38.6464 11.1464C38.8728 11.3728 39 11.6799 39 12V36C39 38.2091 37.2091 40 35 40H11C8.79086 40 7 38.2091 7 36V4Z" fill="white"/>
<path d="M27 0.5V8C27 10.2091 28.7909 12 31 12H38.5" stroke="#D0D5DD" stroke-width="1.5"/>
<rect x="1" y="17.5" width="28" height="17" rx="2" fill="#7F56D9"/>
<path d="M8.06707 27.86H6.59707V30.5H5.12707V23.32H8.06707C8.91707 23.32 9.57707 23.52 10.0471 23.91C10.5071 24.31 10.7471 24.87 10.7471 25.59C10.7471 26.31 10.5071 26.87 10.0371 27.27C9.56707 27.67 8.90707 27.86 8.06707 27.86ZM6.59707 24.57V26.61H7.98707C8.40707 26.61 8.72707 26.53 8.94707 26.35C9.16707 26.17 9.28707 25.92 9.28707 25.59C9.28707 25.26 9.16707 25.01 8.94707 24.83C8.72707 24.66 8.40707 24.57 7.98707 24.57H6.59707ZM16.1538 23.32H17.5638V30.5H16.2838L12.9238 25.55V30.5H11.5138V23.32H13.0038L16.1538 28.03V23.32ZM24.9282 30.5H23.6082V29.81C23.4482 30.06 23.1982 30.26 22.8682 30.4C22.5282 30.54 22.1582 30.61 21.7382 30.61C21.2582 30.61 20.8082 30.52 20.3882 30.33C19.9682 30.14 19.6182 29.86 19.3182 29.5C19.0382 29.18 18.8282 28.8 18.6882 28.36C18.5382 27.92 18.4682 27.45 18.4682 26.95C18.4682 26.44 18.5382 25.96 18.6982 25.51C18.8482 25.07 19.0682 24.67 19.3582 24.33C19.6582 23.97 20.0282 23.7 20.4582 23.5C20.8782 23.31 21.3382 23.21 21.8382 23.21C22.5582 23.21 23.1782 23.39 23.6882 23.75C24.1982 24.11 24.5782 24.63 24.8182 25.31L23.4082 25.78C23.3082 25.38 23.1282 25.06 22.8582 24.84C22.5882 24.62 22.2582 24.5 21.8582 24.5C21.2782 24.5 20.8182 24.73 20.4682 25.17C20.1182 25.61 19.9482 26.2 19.9482 26.92C19.9482 27.65 20.1182 28.24 20.4782 28.69C20.8382 29.14 21.2982 29.36 21.8782 29.36C22.3282 29.36 22.6982 29.22 22.9982 28.94C23.2882 28.66 23.4482 28.29 23.4882 27.83H21.7482V26.58H24.9282V30.5Z" fill="white"/>
</svg>
