<svg width="40" height="40" viewBox="0 0 40 40" fill="none" xmlns="http://www.w3.org/2000/svg">
<path d="M7 4C7 1.79086 8.79086 0 11 0H27C27.3201 0 27.6272 0.127177 27.8536 0.353553L38.6464 11.1464C38.8728 11.3728 39 11.6799 39 12V36C39 38.2091 37.2091 40 35 40H11C8.79086 40 7 38.2091 7 36V4Z" fill="white"/>
<path d="M27 0.5V8C27 10.2091 28.7909 12 31 12H38.5" stroke="#D0D5DD" stroke-width="1.5"/>
<rect x="1" y="17.5" width="26" height="17" rx="2" fill="#E62E05"/>
<path d="M8.04363 27.86H6.57363V30.5H5.10363V23.32H8.04363C8.89363 23.32 9.55363 23.52 10.0236 23.91C10.4836 24.31 10.7236 24.87 10.7236 25.59C10.7236 26.31 10.4836 26.87 10.0136 27.27C9.54363 27.67 8.88363 27.86 8.04363 27.86ZM6.57363 24.57V26.61H7.96363C8.38363 26.61 8.70363 26.53 8.92363 26.35C9.14363 26.17 9.26363 25.92 9.26363 25.59C9.26363 25.26 9.14363 25.01 8.92363 24.83C8.70363 24.66 8.38363 24.57 7.96363 24.57H6.57363ZM14.4304 27.86H12.9604V30.5H11.4904V23.32H14.4304C15.2804 23.32 15.9404 23.52 16.4104 23.91C16.8704 24.31 17.1104 24.87 17.1104 25.59C17.1104 26.31 16.8704 26.87 16.4004 27.27C15.9304 27.67 15.2704 27.86 14.4304 27.86ZM12.9604 24.57V26.61H14.3504C14.7704 26.61 15.0904 26.53 15.3104 26.35C15.5304 26.17 15.6504 25.92 15.6504 25.59C15.6504 25.26 15.5304 25.01 15.3104 24.83C15.0904 24.66 14.7704 24.57 14.3504 24.57H12.9604ZM23.3771 23.32V24.59H21.1271V30.5H19.6571V24.59H17.3971V23.32H23.3771Z" fill="white"/>
</svg>
