<svg width="40" height="40" viewBox="0 0 40 40" fill="none" xmlns="http://www.w3.org/2000/svg">
<path d="M7 4C7 1.79086 8.79086 0 11 0H27C27.3201 0 27.6272 0.127177 27.8536 0.353553L38.6464 11.1464C38.8728 11.3728 39 11.6799 39 12V36C39 38.2091 37.2091 40 35 40H11C8.79086 40 7 38.2091 7 36V4Z" fill="white"/>
<path d="M27 0.5V8C27 10.2091 28.7909 12 31 12H38.5" stroke="#D0D5DD" stroke-width="1.5"/>
<rect x="1" y="17.5" width="27" height="17" rx="2" fill="#344054"/>
<path d="M7.41445 27.83H6.41445V30.5H4.94445V23.32H7.88445C8.72445 23.32 9.38445 23.52 9.85445 23.91C10.3245 24.31 10.5645 24.86 10.5645 25.58C10.5645 26.12 10.4245 26.57 10.1445 26.93C9.86445 27.29 9.47445 27.55 8.96445 27.69L10.7545 30.5H9.07445L7.41445 27.83ZM6.41445 24.57V26.6H7.80445C8.22445 26.6 8.54445 26.52 8.76445 26.34C8.98445 26.17 9.10445 25.92 9.10445 25.59C9.10445 25.26 8.98445 25.01 8.76445 24.83C8.54445 24.66 8.22445 24.57 7.80445 24.57H6.41445ZM10.957 30.5L13.637 23.32H15.317L18.007 30.5H16.517L15.947 28.96H12.987L12.417 30.5H10.957ZM15.477 27.71L14.457 24.95L13.447 27.71H15.477ZM21.184 27.83H20.184V30.5H18.714V23.32H21.654C22.494 23.32 23.154 23.52 23.624 23.91C24.094 24.31 24.334 24.86 24.334 25.58C24.334 26.12 24.194 26.57 23.914 26.93C23.634 27.29 23.244 27.55 22.734 27.69L24.524 30.5H22.844L21.184 27.83ZM20.184 24.57V26.6H21.574C21.994 26.6 22.314 26.52 22.534 26.34C22.754 26.17 22.874 25.92 22.874 25.59C22.874 25.26 22.754 25.01 22.534 24.83C22.314 24.66 21.994 24.57 21.574 24.57H20.184Z" fill="white"/>
</svg>
