<svg width="40" height="40" viewBox="0 0 40 40" fill="none" xmlns="http://www.w3.org/2000/svg">
<path d="M7 4C7 1.79086 8.79086 0 11 0H27C27.3201 0 27.6272 0.127177 27.8536 0.353553L38.6464 11.1464C38.8728 11.3728 39 11.6799 39 12V36C39 38.2091 37.2091 40 35 40H11C8.79086 40 7 38.2091 7 36V4Z" fill="white"/>
<path d="M27 0.5V8C27 10.2091 28.7909 12 31 12H38.5" stroke="#D0D5DD" stroke-width="1.5"/>
<rect x="1" y="18" width="26" height="17" rx="2" fill="#344054"/>
<path d="M10.4376 23.82V25.09H8.18762V31H6.71762V25.09H4.45762V23.82H10.4376ZM15.6374 23.82H17.2474L14.8674 27.35L17.3474 31H15.6974L13.9874 28.44L12.2674 31H10.6574L13.1474 27.35L10.7474 23.82H12.4074L14.0174 26.24L15.6374 23.82ZM23.5431 23.82V25.09H21.2931V31H19.8231V25.09H17.5631V23.82H23.5431Z" fill="white"/>
</svg>
