<svg width="15" height="11" viewBox="0 0 15 11" fill="none" xmlns="http://www.w3.org/2000/svg">
<path opacity="0.4" d="M14.176 1.79123C13.8687 1.59766 13.4911 1.58053 13.1691 1.74432L12.0823 2.29302C11.6805 2.49553 11.4311 2.905 11.4311 3.36064V7.63854C11.4311 8.09417 11.6805 8.5029 12.0823 8.7069L13.1684 9.25485C13.3158 9.33079 13.4735 9.36727 13.6311 9.36727C13.8203 9.36727 14.0081 9.31366 14.176 9.20869C14.4833 9.01586 14.6666 8.68158 14.6666 8.31529V2.68537C14.6666 2.31908 14.4833 1.9848 14.176 1.79123Z" fill="white"/>
<path d="M7.26374 11H3.01623C1.24008 11 0 9.7753 0 8.022V2.978C0 1.22396 1.24008 0 3.01623 0H7.26374C9.03989 0 10.28 1.22396 10.28 2.978V8.022C10.28 9.7753 9.03989 11 7.26374 11Z" fill="white"/>
</svg>
