<svg width="40" height="40" viewBox="0 0 40 40" fill="none" xmlns="http://www.w3.org/2000/svg">
<path d="M7 4C7 1.79086 8.79086 0 11 0H27C27.3201 0 27.6272 0.127177 27.8536 0.353553L38.6464 11.1464C38.8728 11.3728 39 11.6799 39 12V36C39 38.2091 37.2091 40 35 40H11C8.79086 40 7 38.2091 7 36V4Z" fill="white"/>
<path d="M27 0.5V8C27 10.2091 28.7909 12 31 12H38.5" stroke="#D0D5DD" stroke-width="1.5"/>
<rect x="1.5" y="17.5" width="25" height="17" rx="2" fill="#099250"/>
<path d="M9.82684 23.32H11.4368L9.05684 26.85L11.5368 30.5H9.88684L8.17684 27.94L6.45684 30.5H4.84684L7.33684 26.85L4.93684 23.32H6.59684L8.20684 25.74L9.82684 23.32ZM17.0221 30.5H12.2521V23.32H13.7221V29.23H17.0221V30.5ZM20.2461 30.61C19.6261 30.61 19.0261 30.48 18.4661 30.22C17.8961 29.96 17.4761 29.62 17.1961 29.19L18.2061 28.21C18.4661 28.59 18.7761 28.88 19.1461 29.08C19.5061 29.28 19.8961 29.38 20.2961 29.38C20.6861 29.38 20.9961 29.3 21.2361 29.13C21.4761 28.97 21.5961 28.74 21.5961 28.44C21.5961 28.26 21.5361 28.12 21.4361 28C21.3361 27.89 21.1561 27.79 20.9161 27.71C20.8461 27.69 20.7261 27.66 20.5461 27.62C20.3661 27.58 20.1261 27.52 19.8361 27.45C19.4261 27.36 19.1061 27.27 18.8861 27.18C18.6561 27.09 18.4561 26.99 18.2961 26.87C18.0561 26.71 17.8861 26.51 17.7761 26.27C17.6561 26.03 17.6061 25.76 17.6061 25.44C17.6061 25.1 17.6761 24.79 17.8161 24.5C17.9561 24.22 18.1661 23.97 18.4361 23.77C18.6761 23.59 18.9461 23.46 19.2661 23.36C19.5861 23.26 19.9161 23.21 20.2761 23.21C20.8461 23.21 21.3761 23.33 21.8561 23.55C22.3361 23.78 22.7061 24.09 22.9861 24.48L22.0161 25.43C21.7761 25.1 21.5061 24.85 21.2161 24.69C20.9161 24.53 20.5961 24.44 20.2361 24.44C19.8761 24.44 19.5961 24.52 19.3761 24.68C19.1561 24.84 19.0561 25.04 19.0561 25.3C19.0561 25.46 19.0961 25.59 19.1861 25.69C19.2661 25.79 19.4061 25.88 19.6061 25.95C19.6861 25.98 19.7761 26.01 19.8961 26.04C20.0161 26.07 20.2161 26.12 20.5161 26.18C21.0261 26.3 21.3961 26.4 21.6361 26.48C21.8661 26.56 22.0661 26.65 22.2361 26.75C22.5161 26.93 22.7161 27.14 22.8561 27.39C22.9861 27.65 23.0561 27.95 23.0561 28.29C23.0561 28.65 22.9761 28.97 22.8261 29.27C22.6761 29.57 22.4561 29.83 22.1761 30.03C21.9161 30.22 21.6261 30.36 21.2961 30.46C20.9661 30.56 20.6161 30.61 20.2461 30.61Z" fill="white"/>
</svg>
