<svg width="40" height="40" viewBox="0 0 40 40" fill="none" xmlns="http://www.w3.org/2000/svg">
<path d="M7 4C7 1.79086 8.79086 0 11 0H27C27.3201 0 27.6272 0.127177 27.8536 0.353553L38.6464 11.1464C38.8728 11.3728 39 11.6799 39 12V36C39 38.2091 37.2091 40 35 40H11C8.79086 40 7 38.2091 7 36V4Z" fill="white"/>
<path d="M27 0.5V8C27 10.2091 28.7909 12 31 12H38.5" stroke="#D0D5DD" stroke-width="1.5"/>
<rect x="1" y="17.5" width="22" height="17" rx="2" fill="#344054"/>
<path d="M6.52539 29.23H10.3154V30.5H4.63539V29.38L8.40539 24.59H4.66539V23.32H10.2754V24.44L6.52539 29.23ZM11.2433 23.32H12.7133V30.5H11.2433V23.32ZM16.9079 27.86H15.4379V30.5H13.9679V23.32H16.9079C17.7579 23.32 18.4179 23.52 18.8879 23.91C19.3479 24.31 19.5879 24.87 19.5879 25.59C19.5879 26.31 19.3479 26.87 18.8779 27.27C18.4079 27.67 17.7479 27.86 16.9079 27.86ZM15.4379 24.57V26.61H16.8279C17.2479 26.61 17.5679 26.53 17.7879 26.35C18.0079 26.17 18.1279 25.92 18.1279 25.59C18.1279 25.26 18.0079 25.01 17.7879 24.83C17.5679 24.66 17.2479 24.57 16.8279 24.57H15.4379Z" fill="white"/>
</svg>
